<svg xmlns="http://www.w3.org/2000/svg" viewBox="0 0 192 192">
  <!-- Background -->
  <circle cx="96" cy="96" r="92" fill="#3498db" />
  <circle cx="96" cy="96" r="82" fill="#2980b9" />
  
  <!-- Sun -->
  <circle cx="75" cy="76" r="32" fill="#f1c40f" />
  
  <!-- Sun rays -->
  <g fill="#f39c12">
    <rect x="75" y="30" width="3" height="15" rx="1.5" transform="rotate(0 75 35)" />
    <rect x="75" y="30" width="3" height="15" rx="1.5" transform="rotate(45 75 35)" />
    <rect x="75" y="30" width="3" height="15" rx="1.5" transform="rotate(90 75 35)" />
    <rect x="75" y="30" width="3" height="15" rx="1.5" transform="rotate(135 75 35)" />
    <rect x="75" y="30" width="3" height="15" rx="1.5" transform="rotate(180 75 35)" />
    <rect x="75" y="30" width="3" height="15" rx="1.5" transform="rotate(225 75 35)" />
    <rect x="75" y="30" width="3" height="15" rx="1.5" transform="rotate(270 75 35)" />
    <rect x="75" y="30" width="3" height="15" rx="1.5" transform="rotate(315 75 35)" />
  </g>
  
  <!-- Cloud -->
  <path d="M130,95 C130,78.4315 116.5685,65 100,65 C83.4315,65 70,78.4315 70,95 C70,95 70,95 70,95 L70,95 C70,95 60,95 60,95 C51.7157,95 45,101.716 45,110 C45,118.284 51.7157,125 60,125 L130,125 C138.284,125 145,118.284 145,110 C145,101.716 138.284,95 130,95 Z" fill="#ecf0f1" />
  
  <!-- Raindrops -->
  <g fill="#3498db">
    <path d="M80,138 C80,142.418 76.4183,146 72,146 C67.5817,146 64,142.418 64,138 C64,133.582 72,125 72,125 C72,125 80,133.582 80,138 Z" />
    <path d="M110,138 C110,142.418 106.418,146 102,146 C97.5817,146 94,142.418 94,138 C94,133.582 102,125 102,125 C102,125 110,133.582 110,138 Z" />
    <path d="M140,138 C140,142.418 136.418,146 132,146 C127.582,146 124,142.418 124,138 C124,133.582 132,125 132,125 C132,125 140,133.582 140,138 Z" />
  </g>
</svg>
