<svg xmlns="http://www.w3.org/2000/svg" viewBox="0 0 512 512">
  <!-- Background -->
  <circle cx="256" cy="256" r="246" fill="#3498db" />
  <circle cx="256" cy="256" r="226" fill="#2980b9" />
  
  <!-- Sun -->
  <circle cx="200" cy="200" r="88" fill="#f1c40f" />
  <circle cx="200" cy="200" r="74" fill="#f39c12" />
  
  <!-- Sun rays -->
  <g fill="#f1c40f">
    <rect x="200" y="80" width="8" height="40" rx="4" transform="rotate(0 200 80)" />
    <rect x="200" y="80" width="8" height="40" rx="4" transform="rotate(45 200 80)" />
    <rect x="200" y="80" width="8" height="40" rx="4" transform="rotate(90 200 80)" />
    <rect x="200" y="80" width="8" height="40" rx="4" transform="rotate(135 200 80)" />
    <rect x="200" y="80" width="8" height="40" rx="4" transform="rotate(180 200 80)" />
    <rect x="200" y="80" width="8" height="40" rx="4" transform="rotate(225 200 80)" />
    <rect x="200" y="80" width="8" height="40" rx="4" transform="rotate(270 200 80)" />
    <rect x="200" y="80" width="8" height="40" rx="4" transform="rotate(315 200 80)" />
  </g>
  
  <!-- Cloud -->
  <path d="M350,240 C350,196.863 315.137,162 272,162 C228.863,162 194,196.863 194,240 C194,240 194,240 194,240 L194,240 C194,240 170,240 170,240 C148.402,240 131,257.402 131,279 C131,300.598 148.402,318 170,318 L350,318 C371.598,318 389,300.598 389,279 C389,257.402 371.598,240 350,240 Z" fill="#ecf0f1" />
  <path d="M350,240 C350,196.863 315.137,162 272,162 C228.863,162 194,196.863 194,240 C194,240 194,240 194,240 L194,240 C194,240 170,240 170,240 C148.402,240 131,257.402 131,279 C131,300.598 148.402,318 170,318 L350,318 C371.598,318 389,300.598 389,279 C389,257.402 371.598,240 350,240 Z" fill="#ecf0f1" />
  
  <!-- Shadow on cloud -->
  <path d="M272,162 C270.658,162 269.324,162.041 268,162.12 C307.052,165.001 338,198.619 338,240 C338,240 338,240 338,240 L338,240 C338,240 350,240 350,240 C371.598,240 389,257.402 389,279 C389,300.598 371.598,318 350,318 L170,318 C168.658,318 167.324,317.959 166,317.88 L350,318 C371.598,318 389,300.598 389,279 C389,257.402 371.598,240 350,240 C350,240 350,240 350,240 L350,240 C350,196.863 315.137,162 272,162 Z" fill="#bdc3c7" />
  
  <!-- Raindrops -->
  <g fill="#3498db">
    <path d="M210,368 C210,380.15 200.15,390 188,390 C175.85,390 166,380.15 166,368 C166,355.85 188,334 188,334 C188,334 210,355.85 210,368 Z" />
    <path d="M280,368 C280,380.15 270.15,390 258,390 C245.85,390 236,380.15 236,368 C236,355.85 258,334 258,334 C258,334 280,355.85 280,368 Z" />
    <path d="M350,368 C350,380.15 340.15,390 328,390 C315.85,390 306,380.15 306,368 C306,355.85 328,334 328,334 C328,334 350,355.85 350,368 Z" />
  </g>
  
  <!-- Animated shine effect -->
  <circle cx="200" cy="200" r="88" fill="#f1c40f" opacity="0.3">
    <animate attributeName="r" values="88;96;88" dur="3s" repeatCount="indefinite" />
    <animate attributeName="opacity" values="0.3;0.5;0.3" dur="3s" repeatCount="indefinite" />
  </circle>
</svg>
